# xmcd
#
# Track frame offsets:
#	150
#	21355
#	35845
#	69408
#	91583
#	116128
#	129415
#	149970
#	161598
#
# Disc length: 2385 seconds
#
# Revision: 3
# Processed by: cddbd v1.5.2PL0 Copyright (c) Steve Scherf et al.
# Submitted via: audiograbber 1.83.01
#
DISCID=81094f09
DTITLE=Mitch Ryder - Naked But Not Dead
DYEAR=1987
DGENRE=Rock
TTITLE0=Ain't Nobody White
TTITLE1=It's Not For Me (Corporate Song)
TTITLE2=War
TTITLE3=Future Looks Bright
TTITLE4=I Got Mine
TTITLE5=Spitting Lizards
TTITLE6=True Love
TTITLE7=I Don't Wanna Hear It
TTITLE8=Hometown
EXTD=YEAR: 1980\n\nCD 1987
EXTT0=
EXTT1=
EXTT2=
EXTT3=
EXTT4=
EXTT5=
EXTT6=
EXTT7=
EXTT8=
PLAYORDER=
